<svg xmlns="http://www.w3.org/2000/svg" width="761.9" height="669.4"><path d="M202 283.9c111.4 0 201.8 86.3 201.8 192.7S313.4 669.4 202 669.4 0 583 0 476.6 90.4 284 202 284z" fill="#fbfcfc"/><path d="M604 84.2a21.5 21.5 0 0121.6 21.5v55.6a21.5 21.5 0 01-21.5 21.5h-52.6c-6.9-6.7-.4-48.8 4.8-69v-8a21.5 21.5 0 0121.5-21.6z" fill="#191847"/><path d="M616.8 202.1l-12-55.8a39.1 39.1 0 0010.4-28.2c-2.2-31-45.6-24.1-54-8.5s-7.4 55.3 3.5 58.1c4.3 1.1 13.6-1.6 23-7.2l-5.9 41.6z" fill="#ffdebf"/><g transform="translate(375.8 323.2)"><path d="M96.4 30.4c5.7 9.3 19.2 35.4 33.6 66 12.6 26.7 32.3 91.6 32.3 91.6l-16.7 7.6s-41.4-66.4-67.4-113c.9 8 1.8 16.6 2.6 25.5 2.7 29.5 0 93-1.5 111.4-.9 11.5-16.6 8.5-18-.8S31.6 63.6 31.6 32.8c0-.7 25.5-17.7 36.1-6.6a23.8 23.8 0 0113.6-4.9c5.5 0 11 2.6 15 9.1z" fill="#ffdebf"/><path d="M161.1 164L103.7 28C89.9 5.7 51.4 32.3 56 45.2c10.6 29.1 64.8 123.4 68 132.1z" fill="#bebfbf"/><path d="M30.2 43.5c0 38.5 17 129.1 17 137.6l40.9-1.4s-10.8-118.1-9-119c2.4-1.1 103.3 14 133.5 15.2 43.6 1.6 61.6-25.1 63.1-75.9h-84.5S83 13 48.8 18c-14.5 2.2-18.6 14.8-18.6 25.5z" fill="#d6d8da"/><path d="M160.1 182.8a2.9 2.9 0 014.1 1l5 8.8a93.3 93.3 0 011.6 11.4l-79.5 19.8s-5.7-9.4.8-12l10.7-4.2 32.9-25.6a1.5 1.5 0 012 .2l3.9 5.2s6.8 1.4 10.7.4zM77.5 195.8a2.9 2.9 0 013.7 2l2.8 9.7a93.3 93.3 0 01-1.3 11.5H.7s-3.2-10.6 3.7-11.4S16 206 16 206l38-17a1.5 1.5 0 012 .8l2.4 6s6.4 3 10.4 3z" fill="#e4e4e4"/><rect width="76.7" height="9.3" rx="4" transform="translate(5.7 219)" fill="#34495f"/><path d="M120.4 8.5h163.4a10 10 0 0110 10v71a4 4 0 01-4 4H110.4v-75a10 10 0 0110-10z" fill="#34495f"/><path d="M124.6 8.4h-3.1A14.5 14.5 0 00107 20.5L75.3 214.6h15.5" fill="#34495f"/><path d="M81.9 192c14.6 0 26.4 11.6 26.4 25.9s-11.8 26-26.4 26-26.5-11.7-26.5-26 11.9-26 26.5-26z" fill="#34495f"/><g transform="translate(165.3 20)" fill="#34495f"><path d="M110.4 220.8a109.9 109.9 0 0061.7-18.9 110.7 110.7 0 0040-48.5A110.2 110.2 0 00202 48.7a110.7 110.7 0 00-48.5-40A110.2 110.2 0 0048.7 18.8a110.7 110.7 0 00-40 48.6 110.2 110.2 0 0010.2 104.7 110.7 110.7 0 0048.5 40 109.7 109.7 0 0043 8.7zm0-200.5a89.6 89.6 0 0150.3 15.4 90.3 90.3 0 0132.7 39.6 90 90 0 01-8.3 85.4 90.3 90.3 0 01-39.7 32.7A90 90 0 0160 185a90.3 90.3 0 01-32.6-39.6A90 90 0 0135.7 60a90.3 90.3 0 0139.6-32.6 89.5 89.5 0 0135-7z"/><path d="M104.7 14.5H116v191.8h-11.4z"/><rect width="11.6" height="191.7" rx="2" transform="rotate(135 55 124.8)"/><rect width="11.4" height="191.8" rx="2" transform="rotate(90 50.8 155.5)"/><rect width="11.6" height="191.7" rx="2" transform="rotate(45 40.5 229.4)"/></g></g><path d="M509 270.7l-46.3 34q-18.9 5.2-31.5 12.7c-2 1.8-4.4 5.5 3.8 4.9s17-1 18.1 1.9-3.8 6.2-1.5 10q2.3 3.8 21.7-19.1l46-19z" fill="#ffdebf"/><path d="M581 179.1c-25.3 47-61.8 83.1-114.7 120.6l20 22.6c59.1-22 90.3-35.2 105.6-79.6 3.8-11.2 6.5-46.8 8.8-65.5z" fill="#35a876"/><path d="M651.5 335.9H539.6s38-116 38.9-159.1c0-1.5 2.7-4 3.9-3.7 13.2 3.7 28.2-2.8 28.2-2.8 26.5 42.6 35.6 95.1 40.9 165.6z" fill="#f2f2f2"/><path d="M664 371.6h-59.6c-49.4 0-36.9-100.5-3.4-201.3h17.4c4.4 0 6.3 3.2 7.1 4.9 23.1 44.5 48 132.8 38.5 196.4z" fill="#3ab982"/><path d="M602.3 182H647a80.2 80.2 0 00-.3-14 38.4 38.4 0 00-2.2-9.4 36 36 0 00-8-11.6c-5.4-6.1-11.1-12.4-11.1-32.1l-1.1-1.1-3.2-3v-1.3a62.1 62.1 0 00-8-11.8 41 41 0 00-9.3-8.2 23 23 0 00-12-3.7c-8 0-14.2 1.6-19 5a37 37 0 00-9.3 10.3 18 18 0 007 9.8c3.3 2.4 7.3 4.3 11.6 6.2a101.2 101.2 0 0111.2 5.8 8.5 8.5 0 115.3 15h-.3a170.5 170.5 0 00-.6 27.1c.5 6.2 1.7 14.2 4.6 17z" fill="#191847"/><g><path d="M650.8 328.7s-10.2 81.6-8.5 90.9c1 4.5 12.8 21.3 21.6 31.6 3.5 4 .5 7-1.4 7.3-15.9 3-21.9-8.6-32-17.2-11-9.5-14.8 5.9-23.5-1.5 5-5.2 16.1-14.4 15.1-23.1-.6-5.8-2.4-98-2.4-98z" fill="#ffdebf"/><path d="M619.4 182s70.2 109.4 24 236.6l-24.4-8c-15.6-59.6-11.7-224-11.7-224z" fill="#3ab982"/></g><g><path d="M337.1 284c.4-5 3.1-11.1 10.3-12.3s14.8 7.3 15.7 9.2 54.3 282 54.3 282" fill="none" stroke="#34495f" stroke-linecap="round" stroke-linejoin="round" stroke-width="11"/><path d="M178.4 107.7L190 53.6a38 38 0 01-10.2-27.4c2.2-30 44-23.4 52.2-8.3s7.2 53.7-3.4 56.4c-4.2 1.1-13.1-1.5-22.2-7l5.7 40.4z" fill="#b28b67"/><path d="M189.7 56.3a25.7 25.7 0 01-11.1-17.7 29.3 29.3 0 01.7-12.6 32.4 32.4 0 013-7.5C187.5-2.7 209-.8 225 1.1c7.8 1 14.3 1.9 17 .1 1.9 11.5-4 20.7-24.8 19a37.2 37.2 0 00-11.8 13.6 8.4 8.4 0 00-9 13.9c-2.1 3-4.3 5.9-6.6 8.6z" fill="#191847"/><path d="M176.9 230l69 174.7 46.3 147.6h18.3l-70.8-322.2z" fill="#b28b67"/><path d="M163 230c-.7 61.5-11.5 144-13.2 147.9S31.6 475.2 31.6 475.2l12.6 13.4s137.5-80.1 143.8-90.8 27.1-109 43.7-167.7z" fill="#b28b67"/><path d="M35.8 473a2.5 2.5 0 00-3.7-1.3l-9.4 4.7a113.4 113.4 0 00-8.4 8.6L61 540.8s10.2-5 7-10.2l-5.3-8.8-8.2-37.3a1.2 1.2 0 00-1.8-.8l-6.1 2.3s-6-2.3-8.3-5zM288.6 543.6a2.8 2.8 0 00-3.6 1.9l-2.7 9.4a90.3 90.3 0 001.3 11.1H363s3.1-10.2-3.5-11l-11.1-1.5-36.9-16.4a1.4 1.4 0 00-1.8.7l-2.4 5.8s-6.2 2.9-10 2.9z" fill="#e4e4e4"/><path d="M223.3 537.1l86.9-9.4L245.8 230H168z" fill="#69a1ac"/><path d="M49.6 453.4l57 67.5s90-98.3 105-128.3S238.5 230 238.5 230h-87.7s-6.5 116.5-8.7 122-92.5 101.3-92.5 101.3z" fill="#89c5cc"/><g><path d="M46.9 328.1c-1.6-1-3.4-4.7.9-7.6C58.5 313 74 300.4 76 296c4.2-8.6 25.6-119.4 25.6-119.4h32S97 294.3 94.8 299.8c-3.4 8.4 3.8 21 6.8 27.8-4.8 2.2-7-.6-9.5-3.3-2.6-3-5.4-5.8-12-2.8-8.2 3.8-15 9.9-23.2 9.9a19 19 0 01-10.1-3.2zM333 261.7l-43-25.2 13.8-23.6 41.3 40c12 5.1 27.6 20.5 22.4 25.3 0 .3-.4-.3-2.2-2.7s-9.6-7.8-13.4-2 7.1 4.7 4.3 8.2a10.2 10.2 0 01-3.2.6c-6 0-10.8-6.3-20-20.6z" fill="#b28b67"/><path d="M199 86.7l12.7-2.2c19.8 69.8 122 117.3 128.2 143.4 2.3 9.5-4.6 14.4-1 17.3L322.3 257c-2.7-3.2-8.7 2.7-21-1.4S199 169.3 199 86.7z" fill="#35a876"/><path d="M77.8 289c1.5-8-8.6-11.9-6-29.7C87.3 158.3 146 104 169.9 86l.6-8.5a5.8 5.8 0 016.2-5.4l39.3 2.7a5.8 5.8 0 015.4 6.2l-1 15c-1.5 92.3 52.3 115.9 40.3 153-9.9 30.5-104.5 63.4-121 33.4a92.8 92.8 0 01-9.9-42.3c-4.1 12-7.6 22.6-10 31.2-4.1 15.3-20.4 17.7-20.4 23.6z" fill="#3ab982"/></g><g transform="translate(193 28.8)"><ellipse cx="4" cy="7.5" rx="4" ry="7.5" transform="translate(31.9 .4)" fill="#191847"/><path d="M33.3 6L12.5 3.6 9 2.7S1.3 4 0 9.5" fill="none" stroke="#191847" stroke-width="3"/></g><g><path d="M345.1 277.4s-5.2-1.3-5.5-6-9-9.5-4.9-14.8 6.9-7.6 7-7.6a39.7 39.7 0 014 4.2c.9 1.2 12.4 13.1 13 19.2s-13.6 5-13.6 5z" fill="none" stroke="#34495f" stroke-linecap="round" stroke-linejoin="round" stroke-width="2"/><path d="M344.5 275c-6-3.9-.9 2.3.8 3.5s6.4 2.3 6.4 2.3l2.7-.7a2.5 2.5 0 00-1-1.8c-1-.6-2.4-1-2.7-3.6s-.2 4.2-6.2.3z" fill="#b28b67"/><path d="M336.9 262.8c-.3-.2-6.1-2-7.4-4.2s2.7-5 2.7-5 5-2.1 5.2-2.4l1.8-2.8s1.5-.1 3.7 4.2-6 10.2-6 10.2z" fill="#b28b67" stroke="#b28b67"/></g></g></svg>