<svg xmlns="http://www.w3.org/2000/svg" width="69" height="53.5"><g transform="translate(8.3 8.6)"><path d="M0 6.2l23-.5S17.7-.1 11.4 0 0 6.2 0 6.2zm0 0l23-.5s-5 6-11.4 6.2S0 6.2 0 6.2z" fill="#d6d8da" fill-rule="evenodd"/><circle cx="4" cy="4" r="4" transform="translate(7.5 2)" fill="#3ab982" opacity=".6"/><circle cx="1.7" cy="1.7" r="1.7" transform="translate(10 4.3)" fill="#34495f"/><circle cx=".9" cy=".9" r=".9" transform="translate(12 3.9)" fill="#3ab982" opacity=".8"/></g><path d="M49.9 51.9H38.4l-7-12-7 12H1.4L31.3 0 61.6 52zM31.4 20.5z" fill="#3ab982"/><path d="M38.4 52l-7-12-7 12H12.9l18.6-31.4L49.9 52z" fill="#34495f"/><g fill="#34495f" fill-rule="evenodd"><path d="M41 6.5a1 1 0 00-.5 1.8 5.6 5.6 0 014 6.8 1 1 0 001.7.5A7.5 7.5 0 0041 6.5z"/><path d="M42.1 3a1 1 0 00-.5 1.8 9.2 9.2 0 016.5 11.3 1 1 0 001.8.5A11.1 11.1 0 0042.1 3z"/></g><path d="M68.9 42.1a.8.8 0 00-.7-.4 3.6 3.6 0 00-1.9.7 6.2 6.2 0 00-1.9 2 .8.8 0 01-.5.4v-8.4a1.4 1.4 0 10-2.8 0v5.5a.2.2 0 01-.4 0v-8a1.4 1.4 0 10-2.8 0v8a.2.2 0 01-.4 0v-6.4a1.2 1.2 0 10-2.5 0v7.1a.2.2 0 01-.3 0v-4.4a1.2 1.2 0 00-2.5 0v9.7c.3 5 3.4 5.6 6.3 5.6a6.5 6.5 0 005.7-3.1l1-1.6 2.1-3.4a4.3 4.3 0 011-1.3 2.7 2.7 0 00.7-.9 1.4 1.4 0 00-.1-1z" fill="#34495f" fill-rule="evenodd"/><path d="M0 42l.6 7a1.4 1.4 0 002.7-.2L3 43.3l1.8.1A7 7 0 006 51.3l1.8-1.8a4.5 4.5 0 016.4-6.3l1.8-1.8a7 7 0 00-3.7-1.8l-3.4-3.8 2-1.1 2.2 2a1.4 1.4 0 001.9-2L11.8 32a1.4 1.4 0 00-1.6-.2l-6.3 3.6a1.6 1.6 0 00-.3 2.4l2.7 3-4.8-.3A1.4 1.4 0 000 42zm3-7a2.3 2.3 0 112.2-2.2A2.3 2.3 0 013 35zm8 16a4.5 4.5 0 003.8-7l1.8-1.8a6.9 6.9 0 011.5 4.3A7 7 0 016.7 52l1.8-1.8a4.5 4.5 0 002.6.8z" fill="#34495f"/></svg>