<svg height="512pt" viewBox="-21 0 512 512" width="512pt" xmlns="http://www.w3.org/2000/svg"><path d="M453.332 85.332c0 38.293-31.039 69.336-69.332 69.336s-69.332-31.043-69.332-69.336C314.668 47.043 345.707 16 384 16s69.332 31.043 69.332 69.332zm0 0"/><path d="M384 170.668c-47.063 0-85.332-38.273-85.332-85.336C298.668 38.273 336.938 0 384 0s85.332 38.273 85.332 85.332c0 47.063-38.27 85.336-85.332 85.336zM384 32c-29.418 0-53.332 23.938-53.332 53.332 0 29.398 23.914 53.336 53.332 53.336s53.332-23.938 53.332-53.336C437.332 55.938 413.418 32 384 32zm69.332 394.668C453.332 464.957 422.293 496 384 496s-69.332-31.043-69.332-69.332c0-38.293 31.039-69.336 69.332-69.336s69.332 31.043 69.332 69.336zm0 0"/><path d="M384 512c-47.063 0-85.332-38.273-85.332-85.332 0-47.063 38.27-85.336 85.332-85.336s85.332 38.273 85.332 85.336c0 47.059-38.27 85.332-85.332 85.332zm0-138.668c-29.418 0-53.332 23.938-53.332 53.336C330.668 456.063 354.582 480 384 480s53.332-23.938 53.332-53.332c0-29.398-23.914-53.336-53.332-53.336zM154.668 256c0 38.293-31.043 69.332-69.336 69.332C47.043 325.332 16 294.293 16 256s31.043-69.332 69.332-69.332c38.293 0 69.336 31.039 69.336 69.332zm0 0"/><path d="M85.332 341.332C38.273 341.332 0 303.062 0 256s38.273-85.332 85.332-85.332c47.063 0 85.336 38.27 85.336 85.332s-38.273 85.332-85.336 85.332zm0-138.664C55.914 202.668 32 226.602 32 256s23.914 53.332 53.332 53.332c29.422 0 53.336-23.934 53.336-53.332s-23.914-53.332-53.336-53.332zm0 0"/><path d="M135.703 245.762c-7.426 0-14.637-3.864-18.562-10.774-5.825-10.218-2.239-23.254 7.98-29.101l197.95-112.852c10.218-5.867 23.253-2.281 29.1 7.977 5.825 10.218 2.24 23.254-7.98 29.101L146.238 242.965a21.195 21.195 0 01-10.535 2.797zm197.93 176c-3.586 0-7.211-.899-10.54-2.797L125.142 306.113c-10.22-5.824-13.801-18.86-7.977-29.101 5.8-10.239 18.856-13.844 29.098-7.977l197.953 112.852c10.219 5.824 13.8 18.86 7.976 29.101-3.945 6.91-11.156 10.774-18.558 10.774zm0 0"/></svg>