<svg xmlns="http://www.w3.org/2000/svg" width="32" height="28.611"><g transform="translate(4.754 4.575)"><path d="M0 3.283l12.234-.255S9.43-.07 6.051.001 0 3.283 0 3.283zm0 0l12.234-.255S9.561 6.24 6.183 6.31 0 3.283 0 3.283z" fill="#34495f" fill-rule="evenodd"/><circle cx="2.137" cy="2.137" r="2.137" transform="translate(3.973 1.077)" fill="#3ab982" opacity=".64"/><circle cx=".879" cy=".879" r=".879" transform="translate(5.301 2.296)" fill="#34495f"/><circle cx=".465" cy=".465" r=".465" transform="translate(6.331 2.068)" fill="#3ab982" opacity=".77"/></g><path d="M25.845 27.575H19.76l-3.753-6.42-3.675 6.42H0L16.006 0 32 27.575zm-9.826-16.661l-.01-.017z" fill="#3ab982"/><path d="M19.755 27.647l-3.753-6.42-3.675 6.42H6.155l9.851-16.683 9.839 16.683z" fill="#34495f"/><g fill="#34495f" fill-rule="evenodd"><path d="M21.108 3.428a.502.502 0 00-.26.97 2.963 2.963 0 012.092 3.624.502.502 0 00.97.261 3.97 3.97 0 00-2.802-4.855z"/><path d="M21.704 1.589a.503.503 0 00-.26.971A4.894 4.894 0 0124.9 8.546a.502.502 0 10.97.26 5.9 5.9 0 00-4.166-7.217z"/></g><path d="M31.915 22.337a.449.449 0 00-.4-.22 1.963 1.963 0 00-1.029.339 3.436 3.436 0 00-1.038 1.152.414.414 0 01-.286.209v-4.646a.786.786 0 10-1.572 0v3.048a.1.1 0 01-.2 0v-4.422a.786.786 0 10-1.572 0v4.422a.1.1 0 01-.2 0v-3.54a.688.688 0 00-1.375 0v3.93a.1.1 0 01-.2 0v-2.456a.689.689 0 00-1.377 0v5.342c.19 2.747 1.875 3.117 3.5 3.117a3.564 3.564 0 003.149-1.733c.077-.124.284-.45.529-.836a98.29 98.29 0 001.208-1.92 2.379 2.379 0 01.547-.726 1.508 1.508 0 00.359-.472.779.779 0 00-.043-.588z" fill="#34495f" fill-rule="evenodd"/><path d="M.215 22.805L.51 26.37a.694.694 0 001.384-.111l-.228-2.776.939.052a3.505 3.505 0 00.605 3.966l.898-.89a2.275 2.275 0 013.225-3.2l.9-.891a3.554 3.554 0 00-1.862-.909L4.65 19.667l.973-.562 1.18 1.042a.692.692 0 00.925-1.029l-1.553-1.376a.7.7 0 00-.811-.082l-3.187 1.839a.8.8 0 00-.139 1.192l1.334 1.507-2.422-.134a.69.69 0 00-.735.741zm1.483-3.494a1.154 1.154 0 111.162-1.149 1.158 1.158 0 01-1.162 1.149zm4.1 8.038a2.267 2.267 0 001.887-3.533l.907-.9a3.469 3.469 0 01.758 2.169 3.559 3.559 0 01-5.743 2.776l.907-.9a2.281 2.281 0 001.282.393z" fill="#34495f"/></svg>