<svg xmlns="http://www.w3.org/2000/svg" width="478" height="386.701"><g style="mix-blend-mode:luminosity;isolation:isolate"><g transform="translate(60.129 62.223)"><path d="M0 44.642l166.374-3.465S128.235-.95 82.29.017 0 44.642 0 44.642zm0 0l166.374-3.465s-36.357 43.677-82.29 44.64S0 44.642 0 44.642z" fill="#34495f" fill-rule="evenodd" opacity=".07"/><circle cx="29.062" cy="29.062" r="29.062" transform="translate(54.031 14.651)" fill="#3ab982" opacity=".64"/><circle cx="11.953" cy="11.953" r="11.953" transform="translate(72.094 31.23)" fill="#34495f"/><circle cx="6.329" cy="6.329" r="6.329" transform="translate(86.09 28.123)" fill="#3ab982" opacity=".77"/></g><path d="M360.548 374.991H277.79l-51.043-87.3-49.975 87.3H9.077L226.75.065V0l.019.033.019-.033v.065l217.461 374.926zM226.923 148.418l-.135-.231z" fill="#3ab982"/><path d="M277.79 375.968l-51.043-87.3-49.975 87.3H92.778L226.75 149.163v-.064l.019.032.019-.032v.064l133.761 226.8z" fill="#34495f"/><g fill="#34495f" fill-rule="evenodd"><path d="M296.12 46.62a6.834 6.834 0 00-3.535 13.184 40.291 40.291 0 0128.46 49.3 6.834 6.834 0 0013.193 3.551A53.983 53.983 0 00296.12 46.62z"/><path d="M304.234 21.614a6.834 6.834 0 00-3.538 13.2 66.549 66.549 0 0147 81.409 6.83 6.83 0 1013.19 3.533 80.226 80.226 0 00-56.652-98.142z"/></g><path d="M476.888 304.575a5.873 5.873 0 00-5.277-2.882 25.7 25.7 0 00-13.467 4.432 44.954 44.954 0 00-13.584 15.078 5.422 5.422 0 01-3.745 2.736v-60.817a10.287 10.287 0 10-20.574 0v39.877a1.289 1.289 0 01-2.572 0v-57.88a10.287 10.287 0 10-20.574 0v57.88a1.289 1.289 0 01-2.572 0v-46.31a9 9 0 10-18 0v51.435a1.289 1.289 0 01-2.572 0v-32.15a9.016 9.016 0 00-18.027 0v69.919c2.487 35.956 24.544 40.808 45.793 40.808 17.6 0 33.439-8.737 41.215-22.69 1-1.623 3.715-5.885 6.931-10.944 8.044-12.634 14.781-23.249 15.808-25.134a31.15 31.15 0 017.156-9.5 19.784 19.784 0 004.7-6.183 10.19 10.19 0 00-.639-7.675z" fill="#34495f" fill-rule="evenodd"/><path d="M.033 303.357l4.216 51c1.079 13.194 20.882 11.379 19.8-1.589l-3.268-39.713 13.435.741a50.143 50.143 0 008.66 56.733l12.84-12.741c-18.921-20.651-4.281-54.2 24.182-54.2a32.7 32.7 0 0121.963 8.421l12.842-12.737a50.848 50.848 0 00-26.6-13.033l-24.607-27.782 13.92-8.04 16.863 14.913c9.8 8.688 23.071-6 13.235-14.718l-22.222-19.678a9.968 9.968 0 00-11.6-1.167s-45.521 26.227-45.587 26.292c-5.294 3.274-6.764 11.671-1.994 17.052l19.084 21.558-34.672-1.913a9.875 9.875 0 00-10.49 10.601zm21.209-49.925a16.5 16.5 0 1116.633-16.5 16.573 16.573 0 01-16.633 16.5zm58.626 114.989c26.339 0 41.633-29.371 27.025-50.605l12.974-12.871a49.623 49.623 0 0110.849 31.025c0 42.371-49.247 65.292-82.155 39.713l12.974-12.874a32.632 32.632 0 0018.333 5.612z" fill="#34495f"/></g></svg>